<?xml version="1.0" ?>
<svg id="Icons" viewBox="0 0 22 22" xmlns="http://www.w3.org/2000/svg" xmlns:xlink="http://www.w3.org/1999/xlink">
  <defs>
    <style>.cls-1{fill:url(#linear-gradient);}</style>
    <linearGradient gradientUnits="userSpaceOnUse" id="linear-gradient" x1="11" x2="11" y1="0.755" y2="22.076">
      <stop offset="0" stop-color="#fff650"/>
      <stop offset="1" stop-color="#ffab17"/>
    </linearGradient>
  </defs>
  <path class="cls-1" d="M11.992,19.912l3.5,1.838A2.131,2.131,0,0,0,18.58,19.5l-.667-3.893a2.129,2.129,0,0,1,.613-1.887l2.828-2.757a2.131,2.131,0,0,0-1.181-3.635l-3.909-.568a2.133,2.133,0,0,1-1.6-1.166L12.911,2.056a2.131,2.131,0,0,0-3.822,0L7.341,5.6a2.133,2.133,0,0,1-1.6,1.166l-3.909.568a2.131,2.131,0,0,0-1.181,3.635l2.828,2.757a2.129,2.129,0,0,1,.613,1.887L3.42,19.5A2.131,2.131,0,0,0,6.512,21.75l3.5-1.838A2.135,2.135,0,0,1,11.992,19.912Z"/>
</svg>